<svg width="192" height="40" viewBox="0 0 192 40" fill="none" xmlns="http://www.w3.org/2000/svg">
<g clip-path="url(#clip0_289_20059)">
<path d="M20.168 39.166C31.2137 39.166 40.168 30.2117 40.168 19.166C40.168 8.12032 31.2137 -0.833984 20.168 -0.833984C9.12227 -0.833984 0.167969 8.12032 0.167969 19.166C0.167969 30.2117 9.12227 39.166 20.168 39.166Z" fill="#CE2457"/>
<path fill-rule="evenodd" clip-rule="evenodd" d="M18.753 7.50018C12.5465 8.00857 7.66797 13.2151 7.66797 19.563C7.66797 26.2477 13.0779 31.6667 19.7513 31.6667C26.4247 31.6667 31.8346 26.2477 31.8346 19.563C31.8346 13.2144 26.9549 8.00742 20.7475 7.5L20.4219 15.45C22.4005 15.7712 23.9112 17.4905 23.9112 19.563C23.9112 21.8644 22.0487 23.73 19.7513 23.73C17.4538 23.73 15.5913 21.8644 15.5913 19.563C15.5913 17.4911 17.1009 15.7725 19.0785 15.4504L18.753 7.50018Z" fill="white"/>
<path d="M20.168 6.66602C21.5487 6.66602 22.668 5.54673 22.668 4.16602C22.668 2.7853 21.5487 1.66602 20.168 1.66602C18.7873 1.66602 17.668 2.7853 17.668 4.16602C17.668 5.54673 18.7873 6.66602 20.168 6.66602Z" fill="white"/>
<path d="M67.668 19.5834C67.668 22.383 66.651 24.6442 64.7302 26.4748C62.8093 28.3053 60.4364 29.1667 57.6116 29.1667C54.7867 29.1667 52.5268 28.3053 50.4929 26.4748C48.685 24.6442 47.668 22.383 47.668 19.5834C47.668 16.7837 48.685 14.5225 50.6059 12.692C52.5268 10.8614 54.8996 10 57.6116 10C60.3234 10 62.8093 10.8614 64.7302 12.692C66.651 14.5225 67.668 16.7837 67.668 19.5834ZM63.9392 19.5834C63.9392 17.9682 63.3742 16.5683 62.1313 15.4915C61.0013 14.4148 59.4195 13.8764 57.6116 13.8764C55.8037 13.8764 54.3347 14.4148 53.0917 15.4915C51.8489 16.5683 51.2838 17.9682 51.2838 19.5834C51.2838 21.1986 51.8489 22.5983 53.0917 23.6751C54.2217 24.7519 55.8037 25.2903 57.6116 25.2903C59.4195 25.2903 61.0013 24.7519 62.1313 23.6751C63.3742 22.5983 63.9392 21.1986 63.9392 19.5834Z" fill="black"/>
<path d="M78.9445 28.334H74.8334V14.1827H68.5V10.834H85.1667V14.1827H78.9445V28.334Z" fill="black"/>
<path d="M95.0242 29.1673C92.0358 29.1673 89.6219 28.736 87.668 27.8732V24.4222C89.8519 25.3928 92.1506 25.8242 94.4495 25.8242C96.1736 25.8242 97.4381 25.6086 98.4725 25.1771C99.392 24.7458 99.9668 24.0987 99.9668 23.3438C99.9668 21.834 98.5875 21.1869 95.714 21.1869H92.1506V18.0594H95.714C98.1277 18.0594 99.2772 17.4124 99.2772 16.1183C99.2772 14.7163 97.6679 14.0692 94.5645 14.0692C92.4955 14.0692 90.4265 14.5007 88.2426 15.3635V12.0202C90.1967 11.2654 92.6104 10.834 95.484 10.834C97.7829 10.834 99.737 11.2653 101.346 12.1281C102.84 12.9909 103.645 14.1771 103.645 15.4712C103.645 17.4124 102.611 18.7066 100.656 19.3535C103.07 20.1084 104.335 21.5104 104.335 23.6673C104.335 25.285 103.53 26.6869 101.806 27.6575C100.082 28.736 97.7829 29.1673 95.0242 29.1673Z" fill="black"/>
<path d="M126 19.5834C126 22.383 124.989 24.6442 123.079 26.4748C121.169 28.3053 118.809 29.1667 116 29.1667C113.191 29.1667 110.944 28.3053 108.921 26.4748C107.011 24.6442 106 22.383 106 19.5834C106 16.7837 107.011 14.5225 108.921 12.692C110.944 10.8614 113.303 10 116.112 10C118.921 10 121.281 10.8614 123.191 12.692C124.989 14.5225 126 16.7837 126 19.5834ZM122.405 19.5834C122.405 17.9682 121.843 16.5683 120.607 15.4915C119.483 14.4148 117.91 13.8764 116.112 13.8764C114.315 13.8764 112.854 14.4148 111.618 15.4915C110.382 16.5683 109.82 17.9682 109.82 19.5834C109.82 21.1986 110.382 22.5983 111.618 23.6751C112.742 24.7519 114.315 25.2903 116.112 25.2903C117.91 25.2903 119.483 24.7519 120.607 23.6751C121.731 22.5983 122.405 21.1986 122.405 19.5834Z" fill="black"/>
<path d="M141.05 28.334H130.168V10.834H140.489C142.283 10.834 143.741 11.2661 144.864 12.0223C145.986 12.7785 146.434 13.9667 146.434 15.2629C146.434 16.1272 146.21 16.8833 145.76 17.5315C145.312 18.1796 144.751 18.7197 143.966 19.0438C146.434 19.6919 147.668 21.2044 147.668 23.5809C147.668 25.0932 147.107 26.2814 145.873 27.1457C144.751 27.9018 143.18 28.334 141.05 28.334ZM134.319 13.9667V17.8555H139.479C140.376 17.8555 141.05 17.6395 141.61 17.3155C142.059 16.9914 142.395 16.4513 142.395 15.9112C142.395 14.6149 141.498 13.9667 139.591 13.9667H134.319ZM134.319 20.8803V25.2013H140.264C141.274 25.2013 141.947 24.9851 142.508 24.6612C143.069 24.229 143.293 23.7969 143.293 23.0408C143.293 22.3926 143.069 21.8524 142.508 21.4204C141.947 20.9883 141.161 20.8803 140.264 20.8803H134.319Z" fill="black"/>
<path d="M154.937 28.334H151V10.834H155.161V22.7167L165.397 10.834H169.333V28.334H165.172V16.4513L154.937 28.334Z" fill="black"/>
<path d="M178.503 28.334H174.336V10.834H178.503V28.334Z" fill="black"/>
<path d="M182.642 18.8548L191.001 27.5007H185.605L177.668 19.0631L185.076 10.834H190.261L182.642 18.8548Z" fill="black"/>
</g>
<defs>
<clipPath id="clip0_289_20059">
<rect width="191.667" height="40" fill="white" transform="translate(0.167969)"/>
</clipPath>
</defs>
</svg>
