<svg width="220" height="22" viewBox="0 0 220 22" fill="none" xmlns="http://www.w3.org/2000/svg">
<g clip-path="url(#clip0_289_15756)">
<mask id="mask0_289_15756" style="mask-type:luminance" maskUnits="userSpaceOnUse" x="0" y="0" width="221" height="22">
<path d="M220.295 0.5H0.527344V21.5H220.295V0.5Z" fill="white"/>
</mask>
<g mask="url(#mask0_289_15756)">
<path fill-rule="evenodd" clip-rule="evenodd" d="M9.43131 0.500004C9.46997 0.500006 9.50875 0.500009 9.54766 0.500009C9.58658 0.500009 9.62538 0.500006 9.66402 0.500004C11.2768 0.499915 12.6605 0.49984 13.7673 0.654283C14.9511 0.819475 16.0774 1.19082 16.9899 2.13791C17.9024 3.085 18.2601 4.25398 18.4194 5.48266C18.5681 6.63139 18.568 8.06749 18.568 9.7414V18.8028C18.568 19.8091 17.782 20.625 16.8123 20.625C15.8427 20.625 15.0567 19.8091 15.0567 18.8028V9.86218C15.0567 8.03347 15.0529 6.84525 14.9393 5.96827C14.8326 5.1437 14.6584 4.87197 14.507 4.71486C14.3557 4.55774 14.0939 4.37698 13.2994 4.26612C12.4544 4.14821 11.3096 4.14435 9.54766 4.14435C7.78573 4.14435 6.6409 4.14821 5.79594 4.26612C5.00148 4.37698 4.73967 4.55774 4.58829 4.71486C4.43691 4.87197 4.26275 5.1437 4.15595 5.96827C4.04235 6.84525 4.03862 8.03347 4.03862 9.86218V18.8028C4.03862 19.8091 3.2526 20.625 2.28298 20.625C1.31338 20.625 0.527352 19.8091 0.527352 18.8028V9.86218C0.527352 9.82179 0.52735 9.78152 0.527348 9.7414C0.527263 8.06749 0.52719 6.63139 0.675994 5.48266C0.835154 4.25398 1.19294 3.085 2.10545 2.13791C3.01796 1.19082 4.14425 0.819475 5.32806 0.654283C6.43485 0.49984 7.81851 0.499915 9.43131 0.500004Z" fill="#D93B33"/>
<path fill-rule="evenodd" clip-rule="evenodd" d="M21.8477 3.60101C21.8477 1.88837 23.2065 0.5 24.883 0.5H33.5552C36.6 0.5 39.0683 3.02174 39.0683 6.13245V8.20135C39.0683 11.3121 36.6 13.8338 33.5552 13.8338H25.4405V18.7896C25.4405 19.8032 24.6362 20.625 23.6441 20.625C22.6519 20.625 21.8477 19.8032 21.8477 18.7896V3.60101ZM25.4405 10.1632H33.5552C34.6158 10.1632 35.4754 9.28486 35.4754 8.20135V6.13245C35.4754 5.04895 34.6158 4.17059 33.5552 4.17059H25.4405V10.1632Z" fill="#D93B33"/>
<path fill-rule="evenodd" clip-rule="evenodd" d="M162.895 3.60102C162.895 1.88837 164.254 0.5 165.93 0.5H174.602C177.646 0.5 180.115 3.02173 180.115 6.13245V8.20137C180.115 11.3121 177.646 13.8338 174.602 13.8338H166.487V18.7896C166.487 19.8032 165.683 20.625 164.691 20.625C163.698 20.625 162.895 19.8032 162.895 18.7896V3.60102ZM166.487 10.1632H174.602C175.662 10.1632 176.523 9.28487 176.523 8.20137V6.13245C176.523 5.04894 175.662 4.17059 174.602 4.17059H166.487V10.1632Z" fill="#2F6EBA"/>
<path fill-rule="evenodd" clip-rule="evenodd" d="M206.431 0.500044L206.349 0.500022C205.85 0.499827 205.317 0.499619 204.869 0.563003C204.344 0.637 203.68 0.826423 203.123 1.41197C202.565 1.99752 202.385 2.69401 202.314 3.2444C202.254 3.71584 202.254 4.2755 202.254 4.79837V4.88438V9.87281C202.254 9.87736 202.254 9.88191 202.254 9.88647C202.254 9.89027 202.254 9.89409 202.254 9.89791V18.7822C202.254 19.7999 203.04 20.6248 204.01 20.6248C204.1 20.6248 204.19 20.6176 204.276 20.6039C204.363 20.6176 204.452 20.6248 204.543 20.6248H214.301L214.401 20.625C214.864 20.6251 215.257 20.6254 215.61 20.5765C218.027 20.2425 219.93 18.2456 220.249 15.7079C220.295 15.3368 220.295 14.925 220.295 14.4395V14.3344V14.2293C220.295 13.7438 220.295 13.332 220.249 12.9608C220.077 11.5962 219.447 10.388 218.526 9.51057C219.255 8.5851 219.689 7.39963 219.689 6.07397C219.689 2.95072 217.277 0.500044 214.301 0.500044H206.431ZM205.765 11.5636V16.9395H214.301C214.919 16.9395 215.058 16.9356 215.152 16.9227C215.993 16.8063 216.656 16.1108 216.767 15.2269C216.779 15.1291 216.783 14.9831 216.783 14.3344C216.783 13.6856 216.779 13.5396 216.767 13.4418C216.656 12.5579 215.993 11.6968 215.152 11.5804C215.058 11.5675 214.919 11.5636 214.301 11.5636H205.765ZM214.301 8.04375H205.765V4.88438C205.765 4.60321 205.765 4.38067 205.769 4.18948C205.951 4.18553 206.163 4.18542 206.431 4.18542H214.301C215.337 4.18542 216.178 4.9861 216.178 6.07397C216.178 7.16186 215.337 8.04375 214.301 8.04375Z" fill="#2F6EBA"/>
<path fill-rule="evenodd" clip-rule="evenodd" d="M92.2692 0.500003C92.3033 0.500004 92.3375 0.500007 92.3719 0.500007C92.4063 0.500007 92.4405 0.500004 92.4747 0.500003C93.909 0.499942 95.1403 0.499889 96.1387 0.609643C97.1987 0.726179 98.2261 0.985586 99.1326 1.66394C99.533 1.96358 99.8915 2.31313 100.199 2.70364C100.894 3.58768 101.16 4.58969 101.28 5.6234C101.392 6.59695 101.392 7.79774 101.392 9.19655V11.9284C101.392 13.3273 101.392 14.528 101.28 15.5016C101.16 16.5353 100.894 17.5374 100.199 18.4214C99.8915 18.8119 99.533 19.1614 99.1326 19.461C98.2261 20.1394 97.1987 20.3988 96.1387 20.5154C95.1403 20.6251 93.909 20.625 92.4747 20.625H92.2692C90.8348 20.625 89.6035 20.6251 88.6052 20.5154C87.5453 20.3988 86.5177 20.1394 85.6113 19.461C85.2108 19.1614 84.8525 18.8119 84.5452 18.4214C83.8496 17.5374 83.5835 16.5353 83.464 15.5016C83.3516 14.528 83.3516 13.3272 83.3516 11.9284V9.29678C83.3516 9.26327 83.3516 9.22987 83.3516 9.19658C83.3516 7.79776 83.3516 6.59696 83.464 5.6234C83.5835 4.58969 83.8496 3.58768 84.5452 2.70364C84.8525 2.31313 85.2108 1.96358 85.6113 1.66394C86.5177 0.985586 87.5453 0.726179 88.6052 0.609643C89.6035 0.499889 90.8348 0.499942 92.2692 0.500003ZM88.7803 4.25713C88.056 4.33676 87.7981 4.4697 87.6561 4.57602C87.5165 4.68039 87.3917 4.80214 87.2847 4.93815C87.1756 5.07672 87.0393 5.32823 86.9576 6.03461C86.8717 6.77795 86.8689 7.76967 86.8689 9.29678V11.8282C86.8689 13.3553 86.8717 14.347 86.9576 15.0904C87.0393 15.7967 87.1756 16.0483 87.2847 16.1868C87.3917 16.3228 87.5165 16.4447 87.6561 16.549C87.7981 16.6553 88.056 16.7882 88.7803 16.8679C89.5425 16.9516 90.8061 16.9544 92.3719 16.9544C93.9379 16.9544 95.2995 16.9516 96.0617 16.8679C96.7861 16.7882 97.044 16.6553 97.186 16.549C97.3256 16.4447 97.4504 16.3228 97.5574 16.1868C97.6665 16.0483 97.8027 15.7967 97.8845 15.0904C97.9703 14.347 97.9731 13.3553 97.9731 11.8282V9.29678C97.9731 7.76967 97.9703 6.77795 97.8845 6.03461C97.8027 5.32823 97.6665 5.07672 97.5574 4.93815C97.4504 4.80214 97.3256 4.68039 97.186 4.57602C97.044 4.4697 96.7861 4.33676 96.0617 4.25713C95.2995 4.17332 93.9379 4.1706 92.3719 4.1706C90.8061 4.1706 89.5425 4.17332 88.7803 4.25713Z" fill="#2F6EBA"/>
<path fill-rule="evenodd" clip-rule="evenodd" d="M49.6285 0.500003C49.6626 0.500004 49.697 0.500007 49.7313 0.500007C49.7657 0.500007 49.7999 0.500004 49.834 0.500003C51.2684 0.499942 52.4998 0.499889 53.498 0.609643C54.558 0.726179 55.5854 0.985586 56.492 1.66394C56.8924 1.96358 57.2508 2.31313 57.5581 2.70364C58.2537 3.58768 58.5198 4.58969 58.6393 5.6234C58.7517 6.59695 58.7517 7.79774 58.7516 9.19655V11.9284C58.7517 13.3273 58.7517 14.528 58.6393 15.5016C58.5198 16.5353 58.2537 17.5374 57.5581 18.4214C57.2508 18.8119 56.8924 19.1614 56.492 19.461C55.5854 20.1394 54.558 20.3988 53.498 20.5154C52.4998 20.6251 51.2684 20.625 49.834 20.625H49.6285C48.1941 20.625 46.9628 20.6251 45.9645 20.5154C44.9045 20.3988 43.8771 20.1394 42.9706 19.461C42.5702 19.1614 42.2117 18.8119 41.9044 18.4214C41.2088 17.5374 40.9428 16.5353 40.8233 15.5016C40.7108 14.528 40.7108 13.3272 40.7109 11.9284V9.29678C40.7109 9.26327 40.7109 9.22987 40.7109 9.19658C40.7108 7.79776 40.7108 6.59696 40.8233 5.6234C40.9428 4.58969 41.2088 3.58768 41.9044 2.70364C42.2117 2.31313 42.5702 1.96358 42.9706 1.66394C43.8771 0.985586 44.9045 0.726179 45.9645 0.609643C46.9628 0.499889 48.1941 0.499942 49.6285 0.500003ZM46.1397 4.25713C45.4153 4.33676 45.1574 4.4697 45.0153 4.57602C44.8758 4.68039 44.751 4.80214 44.644 4.93815C44.535 5.07672 44.3987 5.32823 44.3171 6.03461C44.2311 6.77795 44.2283 7.76967 44.2283 9.29678V11.8282C44.2283 13.3553 44.2311 14.347 44.3171 15.0904C44.3987 15.7967 44.535 16.0483 44.644 16.1868C44.751 16.3228 44.8758 16.4447 45.0153 16.549C45.1574 16.6553 45.4153 16.7882 46.1397 16.8679C46.9019 16.9516 48.1654 16.9544 49.7313 16.9544C51.2972 16.9544 52.6589 16.9516 53.4212 16.8679C54.1455 16.7882 54.4034 16.6553 54.5455 16.549C54.6849 16.4447 54.8097 16.3228 54.9169 16.1868C55.0259 16.0483 55.1622 15.7967 55.2438 15.0904C55.3298 14.347 55.3326 13.3553 55.3326 11.8282V9.29678C55.3326 7.76967 55.3298 6.77795 55.2438 6.03461C55.1622 5.32823 55.0259 5.07672 54.9169 4.93815C54.8097 4.80214 54.6849 4.68039 54.5455 4.57602C54.4034 4.4697 54.1455 4.33676 53.4212 4.25713C52.6589 4.17332 51.2972 4.1706 49.7313 4.1706C48.1654 4.1706 46.9019 4.17332 46.1397 4.25713Z" fill="#D93B33"/>
<path fill-rule="evenodd" clip-rule="evenodd" d="M151.312 0.500003C151.346 0.500004 151.381 0.500006 151.414 0.500006C151.449 0.500006 151.483 0.500004 151.518 0.500003C152.951 0.499942 154.183 0.499888 155.181 0.609643C156.242 0.726179 157.27 0.985586 158.176 1.66393C158.577 1.96359 158.935 2.31313 159.242 2.70365C159.937 3.58768 160.204 4.58968 160.323 5.62338C160.435 6.59694 160.435 7.79773 160.435 9.19653V11.9284C160.435 13.3272 160.435 14.528 160.323 15.5016C160.204 16.5353 159.937 17.5374 159.242 18.4214C158.935 18.8119 158.577 19.1614 158.176 19.461C157.27 20.1394 156.242 20.3988 155.181 20.5154C154.183 20.6251 152.951 20.625 151.518 20.625H151.312C149.877 20.625 148.646 20.6251 147.649 20.5154C146.588 20.3988 145.56 20.1394 144.654 19.461C144.253 19.1614 143.895 18.8119 143.588 18.4214C142.893 17.5374 142.626 16.5353 142.507 15.5016C142.393 14.528 142.393 13.3272 142.395 11.9284V9.29677C142.395 9.26326 142.395 9.22985 142.395 9.19656C142.393 7.79774 142.393 6.59695 142.507 5.62338C142.626 4.58968 142.893 3.58768 143.588 2.70365C143.895 2.31313 144.253 1.96359 144.654 1.66393C145.56 0.985586 146.588 0.726179 147.649 0.609643C148.646 0.499888 149.877 0.499942 151.312 0.500003ZM147.822 4.25713C147.099 4.33675 146.841 4.46969 146.699 4.57601C146.559 4.68038 146.434 4.80213 146.327 4.93816C146.218 5.07672 146.082 5.32822 146.001 6.03459C145.915 6.77794 145.912 7.76966 145.912 9.29677V11.8282C145.912 13.3553 145.915 14.347 146.001 15.0904C146.082 15.7967 146.218 16.0483 146.327 16.1868C146.434 16.3228 146.559 16.4445 146.699 16.549C146.841 16.6553 147.099 16.7882 147.822 16.8679C148.585 16.9516 149.849 16.9544 151.414 16.9544C152.981 16.9544 154.343 16.9516 155.104 16.8679C155.829 16.7882 156.087 16.6553 156.229 16.549C156.369 16.4445 156.494 16.3228 156.601 16.1868C156.71 16.0483 156.846 15.7967 156.928 15.0904C157.013 14.347 157.016 13.3553 157.016 11.8282V9.29677C157.016 7.76966 157.013 6.77794 156.928 6.03459C156.846 5.32822 156.71 5.07672 156.601 4.93816C156.494 4.80213 156.369 4.68038 156.229 4.57601C156.087 4.46969 155.829 4.33675 155.104 4.25713C154.343 4.17333 152.981 4.17059 151.414 4.17059C149.849 4.17059 148.585 4.17333 147.822 4.25713Z" fill="#2F6EBA"/>
<path fill-rule="evenodd" clip-rule="evenodd" d="M190.672 0.500003C190.706 0.500004 190.739 0.500006 190.774 0.500006C190.808 0.500006 190.843 0.500004 190.877 0.500003C192.311 0.499942 193.543 0.499889 194.541 0.609644C195.601 0.726179 196.628 0.985587 197.535 1.66394C197.935 1.96359 198.294 2.31313 198.601 2.70365C199.297 3.5877 199.562 4.58969 199.682 5.62341C199.795 6.59697 199.795 7.79775 199.795 9.19656V11.9285C199.795 13.3273 199.795 14.5281 199.682 15.5017C199.562 16.5353 199.297 17.5373 198.601 18.4214C198.294 18.8119 197.935 19.1614 197.535 19.4611C196.628 20.1394 195.601 20.3988 194.541 20.5154C193.543 20.6251 192.311 20.6251 190.877 20.625H190.672C189.237 20.6251 188.006 20.6251 187.007 20.5154C185.947 20.3988 184.921 20.1394 184.013 19.4611C183.613 19.1614 183.254 18.8119 182.947 18.4214C182.252 17.5373 181.985 16.5353 181.866 15.5017C181.754 14.5281 181.754 13.3273 181.754 11.9284V9.29679C181.754 9.26328 181.754 9.22989 181.754 9.1966C181.754 7.79778 181.754 6.59697 181.866 5.62341C181.985 4.58969 182.252 3.5877 182.947 2.70365C183.254 2.31313 183.613 1.96359 184.013 1.66394C184.921 0.985587 185.947 0.726179 187.007 0.609644C188.006 0.499889 189.237 0.499942 190.672 0.500003ZM187.183 4.25714C186.459 4.33678 186.201 4.46969 186.058 4.57602C185.919 4.68039 185.794 4.80214 185.688 4.93817C185.578 5.07673 185.442 5.32825 185.36 6.03461C185.274 6.77795 185.271 7.76968 185.271 9.29679V11.8282C185.271 13.3554 185.274 14.3471 185.36 15.0904C185.442 15.7969 185.578 16.0483 185.688 16.1869C185.794 16.3229 185.919 16.4447 186.058 16.549C186.201 16.6554 186.459 16.7883 187.183 16.8679C187.946 16.9517 189.208 16.9544 190.774 16.9544C192.341 16.9544 193.702 16.9517 194.464 16.8679C195.188 16.7883 195.446 16.6554 195.589 16.549C195.728 16.4447 195.852 16.3229 195.959 16.1869C196.068 16.0483 196.204 15.7969 196.287 15.0904C196.373 14.3471 196.375 13.3554 196.375 11.8282V9.29679C196.375 7.76968 196.373 6.77795 196.287 6.03461C196.204 5.32825 196.068 5.07673 195.959 4.93817C195.852 4.80214 195.728 4.68039 195.589 4.57602C195.446 4.46969 195.188 4.33678 194.464 4.25714C193.702 4.17334 192.341 4.17061 190.774 4.17061C189.208 4.17061 187.946 4.17334 187.183 4.25714Z" fill="#2F6EBA"/>
<path fill-rule="evenodd" clip-rule="evenodd" d="M76.8329 17.0746L71.4609 4.41005L66.1091 17.0746H76.8329ZM80.4428 17.0746L73.8435 1.61299C73.1736 0.135666 69.732 0.122958 69.0705 1.61119L62.4785 17.0746H62.1294C61.1691 17.0746 60.3906 17.8694 60.3906 18.8498C60.3906 19.8302 61.1691 20.625 62.1294 20.625H80.7926C81.753 20.625 82.5314 19.8302 82.5314 18.8498C82.5314 17.8694 81.753 17.0746 80.7926 17.0746H80.4428Z" fill="#2F6EBA"/>
<path fill-rule="evenodd" clip-rule="evenodd" d="M119.811 3.86548L110.949 10.5841L120.305 17.2374C121.103 17.8051 121.312 18.9456 120.773 19.7849C120.233 20.6243 119.148 20.8445 118.35 20.2768L108.323 13.1463C107.884 12.8343 107.557 12.4293 107.341 11.9785V18.7903C107.341 19.8037 106.56 20.625 105.596 20.625C104.633 20.625 103.852 19.8037 103.852 18.7903V2.34223C103.852 1.32901 104.633 0.507634 105.596 0.507634C106.56 0.507634 107.341 1.32901 107.341 2.34223V9.17874C107.561 8.71842 107.898 8.30611 108.349 7.99227L117.887 0.804127C118.691 0.245584 119.774 0.478102 120.305 1.32347C120.836 2.16884 120.615 3.30693 119.811 3.86548Z" fill="#2F6EBA"/>
<path fill-rule="evenodd" clip-rule="evenodd" d="M122.711 2.25001C122.711 1.2835 123.497 0.5 124.467 0.5H138.995C139.965 0.5 140.752 1.2835 140.752 2.25001C140.752 3.2165 139.965 4 138.995 4H124.467C123.497 4 122.711 3.2165 122.711 2.25001Z" fill="#2F6EBA"/>
<path fill-rule="evenodd" clip-rule="evenodd" d="M131.734 0.5C132.64 0.5 133.374 1.32169 133.374 2.33529V18.7896C133.374 19.8032 132.64 20.625 131.734 20.625C130.828 20.625 130.094 19.8032 130.094 18.7896V2.33529C130.094 1.32169 130.828 0.5 131.734 0.5Z" fill="#2F6EBA"/>
</g>
</g>
<defs>
<clipPath id="clip0_289_15756">
<rect width="218.948" height="21" fill="white" transform="translate(0.527344 0.5)"/>
</clipPath>
</defs>
</svg>
