<svg width="106" height="30" viewBox="0 0 106 30" fill="none" xmlns="http://www.w3.org/2000/svg">
<g clip-path="url(#clip0_289_16025)">
<path d="M1.31838 2.30633H23.2268C23.737 2.30633 24.1506 2.74813 24.1506 3.29313V7.895C24.1506 8.50798 23.9016 9.08836 23.4681 9.49L11.2168 20.4375H23.2268C23.737 20.4375 24.1506 20.8713 24.1506 21.4163V26.6993C24.1506 27.2443 23.737 27.6861 23.2268 27.6861H1.31838C0.808152 27.6861 0.394531 27.2443 0.394531 26.6993V22.105C0.394531 21.492 0.643554 20.9116 1.07708 20.51L13.3284 9.5625H1.31838C0.808152 9.5625 0.394531 9.11062 0.394531 8.56562V3.29313C0.394531 2.74813 0.808152 2.30633 1.31838 2.30633ZM39.4224 1.40625C41.9556 1.40625 44.2141 2.01472 46.0995 3.12667C47.9849 4.23862 49.4972 5.85404 50.5382 7.86793C51.5792 9.88182 52.1489 12.2942 52.1489 15C52.1489 17.7058 51.5792 20.1182 50.5382 22.1321C49.4972 24.146 47.9849 25.7614 46.0995 26.8733C44.2141 27.9853 41.9556 28.5938 39.4224 28.5938C36.8892 28.5938 34.6308 27.9853 32.7454 26.8733C30.86 25.7614 29.3476 24.146 28.3066 22.1321C27.2656 20.1182 26.6959 17.7058 26.6959 15C26.6959 12.2942 27.2656 9.88182 28.3066 7.86793C29.3476 5.85404 30.86 4.23862 32.7454 3.12667C34.6308 2.01472 36.8892 1.40625 39.4224 1.40625ZM39.4224 8.65625C38.2106 8.65625 37.1468 8.92966 36.267 9.43803C35.3871 9.9464 34.6912 10.6897 34.2153 11.6295C33.7394 12.5694 33.4834 13.7057 33.4834 15C33.4834 16.2943 33.7394 17.4306 34.2153 18.3705C34.6912 19.3103 35.3871 20.0536 36.267 20.562C37.1468 21.0703 38.2106 21.3438 39.4224 21.3438C40.6342 21.3438 41.698 21.0703 42.5778 20.562C43.4577 20.0536 44.1536 19.3103 44.6295 18.3705C45.1055 17.4306 45.3614 16.2943 45.3614 15C45.3614 13.7057 45.1055 12.5694 44.6295 11.6295C44.1536 10.6897 43.4577 9.9464 42.5778 9.43803C41.698 8.92966 40.6342 8.65625 39.4224 8.65625ZM66.5722 1.40625C69.1054 1.40625 71.3639 2.01472 73.2493 3.12667C75.1347 4.23862 76.6471 5.85404 77.6881 7.86793C78.7291 9.88182 79.2987 12.2942 79.2987 15C79.2987 17.7058 78.7291 20.1182 77.6881 22.1321C76.6471 24.146 75.1347 25.7614 73.2493 26.8733C71.3639 27.9853 69.1054 28.5938 66.5722 28.5938C64.039 28.5938 61.7806 27.9853 59.8952 26.8733C58.0098 25.7614 56.4974 24.146 55.4564 22.1321C54.4154 20.1182 53.8458 17.7058 53.8458 15C53.8458 12.2942 54.4154 9.88182 55.4564 7.86793C56.4974 5.85404 58.0098 4.23862 59.8952 3.12667C61.7806 2.01472 64.039 1.40625 66.5722 1.40625ZM66.5722 8.65625C65.3605 8.65625 64.2967 8.92966 63.4168 9.43803C62.537 9.9464 61.8411 10.6897 61.3651 11.6295C60.8892 12.5694 60.6332 13.7057 60.6332 15C60.6332 16.2943 60.8892 17.4306 61.3651 18.3705C61.8411 19.3103 62.537 20.0536 63.4168 20.562C64.2967 21.0703 65.3605 21.3438 66.5722 21.3438C67.784 21.3438 68.8478 21.0703 69.7277 20.562C70.6075 20.0536 71.3034 19.3103 71.7794 18.3705C72.2553 17.4306 72.5113 16.2943 72.5113 15C72.5113 13.7057 72.2553 12.5694 71.7794 11.6295C71.3034 10.6897 70.6075 9.9464 69.7277 9.43803C68.8478 8.92966 67.784 8.65625 66.5722 8.65625ZM105.603 3.29627V26.6989C105.603 27.244 105.189 27.6858 104.679 27.6858H100.374C99.7999 27.6858 99.2566 27.4198 98.8805 26.9568L88.6315 13.8722V26.6989C88.6315 27.244 88.2085 27.6858 87.6982 27.6858H82.765C82.2548 27.6858 81.8411 27.244 81.8411 26.6989V3.29627C81.8411 2.75125 82.2548 2.30941 82.765 2.30941H87.0704C87.6443 2.30941 88.1876 2.57548 88.5636 3.03865L98.8127 16.1278V3.29627C98.8127 2.75125 99.2187 2.30941 99.729 2.30941H104.679C105.189 2.30941 105.603 2.75125 105.603 3.29627Z" fill="url(#paint0_linear_289_16025)"/>
</g>
<defs>
<linearGradient id="paint0_linear_289_16025" x1="0.394532" y1="18.9038" x2="105.6" y2="18.4175" gradientUnits="userSpaceOnUse">
<stop offset="0.28523" stop-color="#3E3F53"/>
<stop offset="0.762079" stop-color="#5E3BEC"/>
</linearGradient>
<clipPath id="clip0_289_16025">
<rect width="105.208" height="29" fill="white" transform="translate(0.394531 0.5)"/>
</clipPath>
</defs>
</svg>
