<svg width="63" height="17" viewBox="0 0 63 17" fill="none" xmlns="http://www.w3.org/2000/svg">
<path d="M0.553211 1.51488H13.6722C13.9777 1.51488 14.2254 1.75803 14.2254 2.05797V4.59058C14.2254 4.92793 14.0763 5.24734 13.8167 5.46838L6.48047 11.4933H13.6722C13.9777 11.4933 14.2254 11.732 14.2254 12.0319V14.9394C14.2254 15.2394 13.9777 15.4825 13.6722 15.4825H0.553211C0.247681 15.4825 0 15.2394 0 14.9394V12.411C0 12.0736 0.149118 11.7542 0.408715 11.5332L7.74495 5.50828H0.553211C0.247681 5.50828 0 5.25959 0 4.95966V2.05797C0 1.75803 0.247681 1.51488 0.553211 1.51488ZM23.3703 1.01953C24.8872 1.01953 26.2396 1.3544 27.3686 1.96636C28.4976 2.57831 29.4032 3.46735 30.0266 4.57568C30.65 5.68402 30.9911 7.01164 30.9911 8.50078C30.9911 9.98992 30.65 11.3175 30.0266 12.4259C29.4032 13.5342 28.4976 14.4233 27.3686 15.0352C26.2396 15.6472 24.8872 15.982 23.3703 15.982C21.8534 15.982 20.501 15.6472 19.372 15.0352C18.243 14.4233 17.3374 13.5342 16.714 12.4259C16.0907 11.3175 15.7496 9.98992 15.7496 8.50078C15.7496 7.01164 16.0907 5.68402 16.714 4.57568C17.3374 3.46735 18.243 2.57831 19.372 1.96636C20.501 1.3544 21.8534 1.01953 23.3703 1.01953ZM23.3703 5.00953C22.6447 5.00953 22.0077 5.16 21.4808 5.43978C20.954 5.71956 20.5372 6.12864 20.2522 6.64586C19.9672 7.16309 19.814 7.78845 19.814 8.50078C19.814 9.21311 19.9672 9.83848 20.2522 10.3557C20.5372 10.8729 20.954 11.282 21.4808 11.5618C22.0077 11.8416 22.6447 11.992 23.3703 11.992C24.0959 11.992 24.733 11.8416 25.2598 11.5618C25.7867 11.282 26.2034 10.8729 26.4884 10.3557C26.7734 9.83848 26.9267 9.21311 26.9267 8.50078C26.9267 7.78845 26.7734 7.16309 26.4884 6.64586C26.2034 6.12864 25.7867 5.71956 25.2598 5.43978C24.733 5.16 24.0959 5.00953 23.3703 5.00953ZM39.6279 1.01953C41.1449 1.01953 42.4972 1.3544 43.6262 1.96636C44.7552 2.57831 45.6609 3.46735 46.2842 4.57568C46.9076 5.68402 47.2487 7.01164 47.2487 8.50078C47.2487 9.98992 46.9076 11.3175 46.2842 12.4259C45.6609 13.5342 44.7552 14.4233 43.6262 15.0352C42.4972 15.6472 41.1449 15.982 39.6279 15.982C38.111 15.982 36.7587 15.6472 35.6297 15.0352C34.5006 14.4233 33.595 13.5342 32.9717 12.4259C32.3483 11.3175 32.0072 9.98992 32.0072 8.50078C32.0072 7.01164 32.3483 5.68402 32.9717 4.57568C33.595 3.46735 34.5006 2.57831 35.6297 1.96636C36.7587 1.3544 38.111 1.01953 39.6279 1.01953ZM39.6279 5.00953C38.9023 5.00953 38.2653 5.16 37.7384 5.43978C37.2116 5.71956 36.7949 6.12864 36.5099 6.64586C36.2249 7.16309 36.0716 7.78845 36.0716 8.50078C36.0716 9.21311 36.2249 9.83848 36.5099 10.3557C36.7949 10.8729 37.2116 11.282 37.7384 11.5618C38.2653 11.8416 38.9023 11.992 39.6279 11.992C40.3536 11.992 40.9906 11.8416 41.5175 11.5618C42.0443 11.282 42.461 10.8729 42.746 10.3557C43.031 9.83848 43.1843 9.21311 43.1843 8.50078C43.1843 7.78845 43.031 7.16309 42.746 6.64586C42.461 6.12864 42.0443 5.71956 41.5175 5.43978C40.9906 5.16 40.3536 5.00953 39.6279 5.00953ZM63 2.0597V14.9392C63 15.2392 62.7523 15.4823 62.4468 15.4823H59.8687C59.5251 15.4823 59.1997 15.336 58.9745 15.0812L52.8373 7.88008V14.9392C52.8373 15.2392 52.584 15.4823 52.2784 15.4823H49.3244C49.0188 15.4823 48.7711 15.2392 48.7711 14.9392V2.0597C48.7711 1.75974 49.0188 1.51658 49.3244 1.51658H51.9024C52.2461 1.51658 52.5714 1.66301 52.7966 1.91791L58.9339 9.12148V2.0597C58.9339 1.75974 59.177 1.51658 59.4826 1.51658H62.4468C62.7523 1.51658 63 1.75974 63 2.0597Z" fill="url(#paint0_linear_0_42213)"/>
<defs>
<linearGradient id="paint0_linear_0_42213" x1="1.88091e-07" y1="10.6492" x2="62.9982" y2="10.3323" gradientUnits="userSpaceOnUse">
<stop offset="0.28523" stop-color="#3E3F53"/>
<stop offset="0.762079" stop-color="#5E3BEC"/>
</linearGradient>
</defs>
</svg>
